<svg enable-background="new 0 0 512 200" viewBox="0 0 512 200" xmlns="http://www.w3.org/2000/svg"><path d="m23.4 125.8 1.4-10.8 27.5-27.6h-22.7l1.6-11.6h40l-1.5 10.7-27.8 27.8h25.2l-1.5 11.5z"/><path d="m68.9 77.8-1.1 7.8-30.7 30.7h27.7l-1 7.6h-38.2l1.1-7.9 30.4-30.6h-25.2l1.1-7.6zm4.6-4h-4.6-36-3.5l-.4 3.4-1.1 7.6-.6 4.6h4.6 15.6l-23.6 23.8-.9 1-.2 1.3-1.1 7.9-.6 4.5h4.6 38.2 3.5l.4-3.5 1-7.6.6-4.5h-4.5-18l23.9-23.9 1-1 .2-1.3 1.1-7.8z" fill="#fff"/><path d="m92.9 127c-3.9 0-7.4-.7-10.4-2-3-1.4-5.6-3.3-7.5-5.7s-3.3-5.2-4.1-8.5c-.8-3.2-.9-6.7-.3-10.3.5-3.6 1.6-7.1 3.3-10.2s3.9-5.9 6.5-8.2 5.6-4.2 8.8-5.5c3.3-1.3 6.8-2 10.5-2 4.4 0 8.1.8 11 2.4s5.2 3.7 6.9 6.3c1.6 2.5 2.7 5.4 3.1 8.6.4 3 .4 6.2 0 9.3l-.7 4.8h-36.8c0 1 .2 1.9.6 2.8.5 1.4 1.3 2.5 2.4 3.5s2.4 1.8 3.9 2.3c1.6.6 3.2.9 5 .9 2.4 0 4.5-.5 6.4-1.6 2-1.2 4-2.7 5.8-4.7l1.3-1.4 8.8 7.6-1.4 1.5c-6 6.7-13.8 10.1-23.1 10.1zm15.3-32c0-1-.1-2-.3-2.9-.3-1.3-.8-2.4-1.5-3.4-.7-.9-1.7-1.6-2.9-2.2-1.3-.6-2.9-.9-4.9-.9-1.9 0-3.6.4-5.3 1.1s-3.2 1.7-4.5 2.8-2.4 2.4-3.2 3.8c-.3.6-.6 1.1-.8 1.7z"/><path d="m99.8 76.6c4.1 0 7.4.7 10.1 2.1 2.6 1.4 4.7 3.3 6.2 5.6s2.4 4.9 2.8 7.8.4 5.8 0 8.8l-.5 3.1h-37c-.3 2-.1 3.8.6 5.5.6 1.7 1.6 3.1 2.9 4.2 1.3 1.2 2.8 2.1 4.6 2.7s3.7 1 5.7 1c2.7 0 5.2-.6 7.4-1.9s4.3-2.9 6.3-5l5.8 5.1c-5.7 6.3-12.9 9.4-21.7 9.4-3.6 0-6.8-.6-9.6-1.8s-5-2.9-6.8-5.1c-1.7-2.2-3-4.7-3.7-7.7-.7-2.9-.8-6.1-.3-9.6.5-3.4 1.5-6.6 3.1-9.6 1.6-2.9 3.6-5.5 6.1-7.7 2.4-2.2 5.2-3.9 8.3-5.1 3-1.1 6.2-1.8 9.7-1.8m-17.5 20.4h27.8c.2-1.9.1-3.7-.2-5.3s-.9-3-1.9-4.2c-.9-1.2-2.2-2.1-3.7-2.8-1.6-.7-3.5-1-5.7-1s-4.2.4-6.1 1.2-3.6 1.9-5 3.2c-1.5 1.3-2.7 2.7-3.6 4.3-.9 1.5-1.4 3.1-1.6 4.6m17.5-24.4c-3.9 0-7.7.7-11.2 2.1s-6.7 3.4-9.4 5.8c-2.8 2.5-5.1 5.4-6.9 8.7-1.8 3.4-3 7-3.6 10.9s-.5 7.6.4 11.1c.8 3.5 2.3 6.6 4.5 9.2 2.1 2.7 4.9 4.8 8.2 6.2 3.3 1.5 7 2.2 11.2 2.2 9.9 0 18.2-3.6 24.6-10.7l2.7-3-3.1-2.7-5.2-4.5h6.4 3.4l.5-3.4.5-3.1v-.1-.1c.4-3.3.4-6.6 0-9.8-.5-3.5-1.6-6.6-3.4-9.4-1.9-2.9-4.4-5.2-7.6-6.9-3.3-1.6-7.3-2.5-12-2.5zm-11.5 20.4c.5-.7 1.2-1.4 1.9-2 1.1-1 2.5-1.8 4-2.5 1.4-.6 2.9-.9 4.5-.9 1.7 0 3 .2 4.1.7.9.4 1.6.9 2.1 1.6s.9 1.6 1.1 2.6c0 .2.1.4.1.6h-17.8zm-2.7 15h20c-1.7 1.7-3.4 3-5.1 4.1-1.6.9-3.3 1.4-5.4 1.4-1.5 0-3-.2-4.3-.7s-2.4-1.1-3.2-1.9c-.9-.9-1.5-1.8-2-2.9z" fill="#fff"/><path d="m122.1 125.8 7-50h12.8l-.4 3.2c.9-.7 1.8-1.3 2.8-1.8 3.1-1.7 6.3-2.5 9.5-2.5 1.6 0 3.1.2 4.5.7l1.6.6-2.5 13.2-2.1-.6c-.7-.2-1.3-.3-1.9-.5-.6-.1-1.1-.2-1.7-.2-3.8 0-6.7 1-8.9 3.1s-3.7 5.4-4.3 10l-3.4 24.8z"/><path d="m153.7 76.6c1.4 0 2.7.2 3.8.6l-1.7 9.4c-.7-.2-1.4-.4-2.1-.5s-1.4-.2-2.1-.2c-4.3 0-7.7 1.2-10.3 3.6s-4.2 6.1-5 11.2l-3.2 23.1h-8.7l6.4-46h8.7l-1 7.1h.2c1.5-2.5 3.6-4.5 6.4-6s5.7-2.3 8.6-2.3m0-4c-3.3 0-6.6.8-9.8 2.4l.2-1.2h-4.6-8.7-3.5l-.5 3.4-6.4 46-.6 4.6h4.6 8.7 3.5l.5-3.5 3.2-23.1c.6-4.1 1.8-7 3.7-8.8 1.8-1.7 4.3-2.5 7.6-2.5.5 0 .9 0 1.3.1.6.1 1.2.3 1.8.4l4.2 1.1.8-4.3 1.7-9.4.6-3.4-3.2-1.1c-1.5-.4-3.2-.7-5.1-.7z" fill="#fff"/><path d="m178 127c-3.7 0-7.1-.7-10.2-2.1s-5.7-3.3-7.7-5.7c-2.1-2.4-3.6-5.2-4.5-8.4-1-3.2-1.2-6.7-.6-10.3.5-3.6 1.6-7 3.5-10.1 1.8-3.1 4-5.8 6.7-8.2 2.7-2.3 5.7-4.2 9.1-5.5 3.4-1.4 6.9-2 10.6-2s7.1.7 10.2 2.1c3 1.4 5.6 3.3 7.7 5.7s3.6 5.2 4.5 8.4 1.1 6.6.6 10.2c-.6 3.6-1.7 7-3.5 10.2-1.8 3.1-4 5.9-6.7 8.2s-5.7 4.1-9.1 5.5c-3.4 1.3-6.9 2-10.6 2zm5.6-40.2c-2.1 0-4 .4-5.7 1.1s-3.3 1.7-4.7 2.9c-1.3 1.2-2.4 2.7-3.3 4.5s-1.5 3.7-1.8 5.9c-.3 2.1-.3 4 .1 5.8.4 1.7 1 3.1 1.9 4.2.9 1.2 2.1 2 3.6 2.7s3.3 1 5.3 1c2.1 0 4-.4 5.7-1.1s3.3-1.7 4.6-2.9 2.4-2.7 3.3-4.5 1.5-3.7 1.8-5.8.2-4-.1-5.8c-.4-1.7-1-3.1-1.9-4.2-.9-1.2-2.1-2.1-3.6-2.7-1.4-.8-3.1-1.1-5.2-1.1z"/><path d="m184.8 76.6c3.4 0 6.5.6 9.3 1.9s5.1 3 7 5.2 3.3 4.8 4.1 7.7 1 6.1.6 9.4c-.5 3.4-1.6 6.5-3.3 9.5-1.7 2.9-3.7 5.5-6.3 7.7-2.5 2.2-5.4 3.9-8.5 5.1-3.1 1.3-6.4 1.9-9.9 1.9-3.4 0-6.6-.6-9.4-1.9s-5.2-3-7-5.1c-1.9-2.2-3.3-4.7-4.1-7.7-.9-2.9-1.1-6.1-.5-9.5.5-3.4 1.5-6.5 3.2-9.4s3.8-5.5 6.3-7.7 5.4-3.9 8.5-5.2c3.3-1.2 6.6-1.9 10-1.9m-5.6 40.3c2.3 0 4.5-.4 6.5-1.2s3.7-1.9 5.2-3.3 2.7-3.1 3.7-5.1 1.7-4.1 2-6.5c.3-2.3.3-4.5-.1-6.5s-1.2-3.7-2.3-5.1-2.6-2.5-4.3-3.3-3.8-1.2-6.1-1.2-4.5.4-6.5 1.2-3.7 1.9-5.2 3.3-2.8 3.1-3.7 5.1c-1 2-1.6 4.1-1.9 6.5-.3 2.3-.3 4.5.1 6.5s1.2 3.7 2.3 5.1 2.5 2.5 4.3 3.3c1.6.7 3.6 1.2 6 1.2m5.6-44.3c-3.9 0-7.7.7-11.4 2.2-3.5 1.4-6.8 3.4-9.6 5.9s-5.3 5.4-7.1 8.7c-1.9 3.3-3.2 7-3.7 10.9-.6 3.9-.4 7.7.7 11.2 1 3.5 2.7 6.6 4.9 9.2 2.3 2.6 5.1 4.7 8.4 6.2s7 2.2 11 2.2c3.9 0 7.7-.7 11.4-2.2 3.5-1.4 6.8-3.4 9.6-5.8 2.9-2.5 5.3-5.4 7.1-8.8 1.9-3.3 3.1-7 3.7-10.8.5-3.9.3-7.6-.7-11.1s-2.7-6.6-4.9-9.2c-2.3-2.6-5.1-4.7-8.4-6.2-3.3-1.6-7-2.4-11-2.4zm-5.6 40.3c-1.7 0-3.3-.3-4.5-.9-1.2-.5-2.1-1.2-2.8-2.1s-1.2-2-1.5-3.4c-.3-1.5-.4-3.2-.1-5.1s.8-3.7 1.6-5.2 1.7-2.8 2.9-3.9 2.5-1.9 4.1-2.6c1.5-.6 3.1-.9 4.9-.9 1.7 0 3.2.3 4.4.8 1.2.6 2.1 1.3 2.9 2.2.7.9 1.2 2 1.5 3.4.3 1.5.4 3.2.1 5.1s-.8 3.6-1.6 5.2c-.8 1.5-1.8 2.9-2.9 3.9-1.1 1.1-2.4 1.9-4 2.5-1.6.7-3.2 1-5 1z" fill="#fff"/><path d="m356.6 182c-3.7 0-7.1-.7-10.2-2.1s-5.7-3.3-7.7-5.7c-2.1-2.4-3.6-5.2-4.5-8.4-1-3.2-1.2-6.7-.6-10.3.5-3.6 1.6-7 3.5-10.1 1.8-3.1 4-5.8 6.7-8.2 2.7-2.3 5.7-4.2 9.1-5.5 3.4-1.4 6.9-2 10.6-2s7.1.7 10.2 2.1c3 1.4 5.6 3.3 7.7 5.7s3.6 5.3 4.5 8.4c.9 3.2 1.1 6.6.6 10.2-.6 3.6-1.7 7-3.5 10.2-1.8 3.1-4 5.9-6.7 8.2s-5.7 4.1-9.1 5.5c-3.3 1.3-6.9 2-10.6 2zm5.7-40.2c-2.1 0-4 .4-5.7 1.1s-3.3 1.7-4.7 2.9c-1.3 1.2-2.4 2.7-3.3 4.5s-1.5 3.7-1.8 5.9c-.3 2.1-.2 4 .1 5.8.4 1.7 1 3.1 1.9 4.2.9 1.2 2.1 2 3.6 2.7s3.3 1 5.3 1c2.1 0 4-.4 5.7-1.1s3.3-1.7 4.6-2.9 2.4-2.7 3.3-4.5 1.5-3.7 1.8-5.8.2-4-.1-5.8c-.4-1.7-1-3.1-1.9-4.2-.9-1.2-2.1-2.1-3.6-2.7-1.4-.8-3.2-1.1-5.2-1.1z"/><path d="m363.4 131.6c3.4 0 6.5.6 9.3 1.9s5.1 3 7 5.2 3.3 4.8 4.1 7.7 1 6.1.6 9.4c-.5 3.4-1.6 6.5-3.3 9.5-1.7 2.9-3.7 5.5-6.3 7.7-2.5 2.2-5.4 3.9-8.5 5.1-3.1 1.3-6.4 1.9-9.9 1.9-3.4 0-6.6-.6-9.4-1.9s-5.2-3-7-5.1c-1.9-2.2-3.3-4.7-4.1-7.7-.9-2.9-1.1-6.1-.5-9.5.5-3.4 1.5-6.5 3.2-9.4s3.8-5.5 6.3-7.7 5.4-3.9 8.5-5.2c3.3-1.2 6.6-1.9 10-1.9m-5.6 40.2c2.3 0 4.5-.4 6.5-1.2s3.7-1.9 5.2-3.3 2.7-3.1 3.7-5.1 1.7-4.1 2-6.5c.3-2.3.3-4.5-.1-6.5s-1.2-3.7-2.3-5.1-2.6-2.5-4.3-3.3-3.8-1.2-6.1-1.2-4.5.4-6.5 1.2-3.7 1.9-5.2 3.3-2.8 3.1-3.7 5.1c-1 2-1.6 4.1-1.9 6.5-.3 2.3-.3 4.5.1 6.5s1.2 3.7 2.3 5.1 2.5 2.5 4.3 3.3c1.6.8 3.7 1.2 6 1.2m5.6-44.2c-3.9 0-7.7.7-11.4 2.2-3.5 1.4-6.8 3.4-9.6 5.9s-5.3 5.4-7.2 8.7-3.2 7-3.7 10.9c-.6 3.9-.4 7.7.7 11.2 1 3.5 2.7 6.6 4.9 9.2 2.3 2.6 5.1 4.7 8.4 6.2s7 2.2 11 2.2c3.9 0 7.7-.7 11.4-2.2 3.5-1.4 6.8-3.4 9.6-5.8 2.9-2.5 5.3-5.4 7.1-8.8 1.9-3.3 3.1-7 3.7-10.8.5-3.9.3-7.6-.7-11.1s-2.7-6.6-4.9-9.2c-2.3-2.6-5.1-4.7-8.4-6.2-3.2-1.6-6.9-2.4-10.9-2.4zm-5.6 40.2c-1.7 0-3.3-.3-4.5-.9-1.2-.5-2.1-1.2-2.8-2.1s-1.2-2-1.5-3.4c-.3-1.5-.4-3.2-.1-5.1s.8-3.7 1.6-5.2 1.7-2.8 2.9-3.9 2.5-1.9 4.1-2.6c1.5-.6 3.1-.9 4.9-.9 1.7 0 3.2.3 4.4.8 1.2.6 2.1 1.3 2.9 2.2.7.9 1.2 2 1.5 3.4.3 1.5.4 3.2.1 5.1s-.8 3.6-1.6 5.2c-.8 1.5-1.8 2.9-2.9 3.9-1.1 1.1-2.4 1.9-4 2.5-1.6.7-3.2 1-5 1z" fill="#fff"/><path d="m418.6 180.8 4.1-29.5c.2-1.9.2-3.5-.1-4.8-.3-1.2-.7-2.2-1.3-2.8-.6-.7-1.3-1.1-2.2-1.5-1-.3-2.1-.5-3.2-.5-1.6 0-3.1.3-4.5.8s-2.6 1.3-3.8 2.3c-1.1 1.1-2.1 2.5-2.9 4.2-.8 1.8-1.4 3.9-1.8 6.3l-3.5 25.4h-12.8l7-50h12.8l-.4 3.3c.9-.7 2-1.4 3.1-1.9 3.2-1.7 6.8-2.5 10.6-2.5 2.4 0 4.7.4 6.9 1.1 2.2.8 4.2 2 5.7 3.7 1.6 1.7 2.7 3.8 3.3 6.3s.7 5.4.2 8.7l-4.3 31.3h-12.9z"/><path d="m419.5 131.6c2.2 0 4.3.3 6.2 1s3.6 1.7 4.9 3.2c1.3 1.4 2.3 3.3 2.9 5.5s.6 4.9.2 7.9l-4.1 29.6h-8.7l3.8-27.2c.3-2.1.2-4-.1-5.5-.4-1.5-.9-2.8-1.7-3.7s-1.8-1.6-3.1-2c-1.2-.4-2.5-.6-3.9-.6-1.8 0-3.5.3-5.2.9s-3.1 1.5-4.5 2.8c-1.3 1.3-2.4 2.9-3.4 4.8-.9 1.9-1.6 4.2-1.9 6.9l-3.3 23.7h-8.7l6.4-46h8.7l-1 7.1h.2c1.5-2.5 3.7-4.5 6.6-6 2.9-1.6 6.1-2.4 9.7-2.4m0-4c-4 0-7.8.8-11.1 2.5l.2-1.4h-4.6-8.7-3.5l-.5 3.4-6.4 46-.6 4.6h4.6 8.7 3.5l.5-3.4 3.3-23.7c.3-2.2.9-4.2 1.6-5.8.7-1.5 1.5-2.7 2.5-3.6.9-.9 1.9-1.5 3-1.9 1.2-.4 2.5-.6 3.9-.6.9 0 1.8.1 2.6.4.6.2 1 .5 1.3.9.4.4.7 1.1.9 2 .2 1 .3 2.4.1 4.1l-3.8 27.2-.6 4.6h4.6 8.7 3.5l.5-3.5 4.1-29.6c.5-3.5.4-6.7-.3-9.5-.7-2.9-2-5.3-3.8-7.2s-4-3.3-6.5-4.2-5.1-1.3-7.7-1.3z" fill="#fff"/><path d="m460.1 182c-3.9 0-7.4-.7-10.4-2-3-1.4-5.6-3.3-7.5-5.7s-3.3-5.2-4.1-8.5c-.8-3.2-.9-6.7-.3-10.3.5-3.6 1.6-7.1 3.3-10.2s3.9-5.9 6.5-8.2 5.6-4.2 8.8-5.5c3.3-1.3 6.8-2 10.5-2 4.4 0 8.1.8 11 2.4s5.2 3.7 6.9 6.3c1.6 2.5 2.7 5.4 3.1 8.6.4 3 .4 6.2 0 9.3l-.8 4.9h-36.8c0 1 .2 1.9.6 2.8.5 1.4 1.3 2.5 2.4 3.5s2.4 1.8 3.9 2.3c1.6.6 3.3.9 5 .9 2.4 0 4.5-.5 6.4-1.6 2-1.2 4-2.7 5.8-4.7l1.3-1.4 8.8 7.6-1.4 1.5c-5.9 6.6-13.7 10-23 10zm15.3-32c0-1-.1-2-.3-2.9-.3-1.3-.8-2.4-1.5-3.4-.7-.9-1.7-1.6-2.9-2.2-1.3-.6-2.9-.9-4.9-.9-1.9 0-3.6.4-5.3 1.1s-3.2 1.7-4.5 2.8-2.4 2.4-3.2 3.8c-.3.6-.6 1.1-.8 1.7z"/><path d="m467 131.6c4.1 0 7.4.7 10.1 2.1 2.6 1.4 4.7 3.3 6.2 5.6s2.4 4.9 2.8 7.8.4 5.8 0 8.8l-.5 3.1h-37c-.3 2-.1 3.8.6 5.5.6 1.7 1.6 3.1 2.9 4.2 1.3 1.2 2.8 2.1 4.6 2.7s3.7 1 5.7 1c2.7 0 5.2-.6 7.4-1.9s4.3-2.9 6.3-5l5.8 5.1c-5.7 6.3-12.9 9.4-21.7 9.4-3.6 0-6.8-.6-9.6-1.8s-5-2.9-6.8-5.1c-1.7-2.2-3-4.7-3.7-7.7-.7-2.9-.8-6.1-.3-9.6.5-3.4 1.5-6.6 3.1-9.6 1.6-2.9 3.6-5.5 6.1-7.7 2.4-2.2 5.2-3.9 8.3-5.1 3-1.2 6.3-1.8 9.7-1.8m-17.5 20.4h27.8c.2-1.9.1-3.7-.2-5.3s-.9-3-1.9-4.2c-.9-1.2-2.2-2.1-3.7-2.8-1.6-.7-3.5-1-5.7-1s-4.2.4-6.1 1.2-3.6 1.9-5 3.2c-1.5 1.3-2.7 2.7-3.6 4.3-.8 1.5-1.4 3.1-1.6 4.6m17.5-24.4c-3.9 0-7.7.7-11.2 2.1s-6.7 3.4-9.4 5.8c-2.8 2.5-5.1 5.4-6.9 8.7-1.8 3.4-3 7-3.6 10.9s-.5 7.6.4 11.1c.8 3.5 2.3 6.6 4.5 9.2 2.1 2.7 4.9 4.8 8.2 6.2 3.3 1.5 7 2.2 11.2 2.2 9.9 0 18.2-3.6 24.6-10.7l2.7-3-3.1-2.7-5.2-4.5h6.4 3.4l.5-3.4.5-3.1v-.1-.1c.4-3.3.4-6.6 0-9.8-.5-3.5-1.6-6.6-3.4-9.4-1.9-2.9-4.4-5.2-7.6-6.9-3.2-1.6-7.2-2.5-12-2.5zm-11.5 20.4c.5-.7 1.2-1.4 1.9-2 1.1-1 2.5-1.8 4-2.5 1.4-.6 2.9-.9 4.5-.9 1.7 0 3 .2 4.1.7.9.4 1.6.9 2.1 1.6s.9 1.6 1.1 2.6c0 .2.1.4.1.6h-17.8zm-2.6 15h20c-1.7 1.7-3.4 3-5.1 4.1-1.6.9-3.3 1.4-5.4 1.4-1.5 0-3-.2-4.3-.7s-2.4-1.1-3.2-1.9c-1-.9-1.6-1.8-2-2.9z" fill="#fff"/><path d="m278.8 172.9-101.8-.3c-1.8 0-2.8-.9-3.3-1.6s-1-1.9-.5-3.6l7.1-23.9c.5-1.7 1.5-3.1 3-4.3 11.3-8 26.7-19.6 45.8-34.5l17.5-13.5c21.3-16.2 27.2-24.3 28.4-28.3 1-3.5.6-6.2-1.3-8.4-2-2.3-5.3-3.4-9.7-3.4-4.7 0-8.8 1.2-12.4 3.7s-5.9 5.6-7.1 9.7l-1.5 5.2c-.3 1.1-1 2.1-2 2.9s-2.1 1.1-3.3 1.1l-32.2-.1c-1.8 0-2.8-.9-3.3-1.6s-1-1.9-.5-3.6l3.2-10.8v-.1c3.1-8.3 8.2-15.6 15.1-21.8s15-10.9 24.3-14.2c9.1-3.2 18.8-4.9 28.7-4.9h.3c11.3 0 20.8 2.1 28.2 6.3 7.5 4.2 12.6 10 15.2 17.2 2.5 7.1 2.5 15.1 0 23.6-1.8 6.1-5.2 12.3-10.1 18.5-4.8 6.1-11.4 12.6-19.4 19.4-5.6 4.9-11.9 9.9-18.6 14.9s-16 11.8-27.8 20.2l-2.4 1.7 40.7.1v-9.8l48.8 28.2-48.8 28.2v-12.2z" fill="#007d9b"/><path d="m272.8 18.5h.3c11 0 20.1 2 27.2 6s11.9 9.3 14.3 16.1 2.4 14.2-.1 22.4c-1.7 5.9-5 11.8-9.8 17.8s-11.2 12.4-19.1 19.1c-5.6 4.9-11.8 9.8-18.5 14.8s-16 11.7-27.7 20.1l-5.7 4.1c-.4.3-.5.6-.5.9.1.3.3.4.8.4l46.8.1v-8.3l42.8 24.7-42.8 24.7v-10.6l-103.8-.3c-.7 0-1.3-.3-1.7-.8s-.5-1.1-.2-1.8l7.1-23.9c.4-1.3 1.2-2.4 2.3-3.2 11.3-8 26.6-19.5 45.9-34.5l17.5-13.5c17.6-13.4 27.3-23.2 29.1-29.4 1.2-4.2.7-7.6-1.7-10.3s-6.1-4.1-11.2-4.1h-.1c-5 0-9.5 1.4-13.4 4-3.9 2.7-6.6 6.3-7.9 10.7l-1.7 5.3c-.2.7-.7 1.3-1.3 1.8-.7.5-1.4.7-2.1.7l-32.2-.1c-.7 0-1.3-.3-1.7-.8s-.5-1.1-.2-1.8l3.2-10.7c3-8 7.8-15 14.5-21s14.6-10.6 23.6-13.8c8.9-3.2 18.2-4.8 28-4.8m0-4c-10.2 0-20 1.7-29.4 5-9.5 3.4-17.9 8.3-24.9 14.6-7.2 6.4-12.4 14-15.6 22.6v.1.1l-3.2 10.7c-.6 1.9-.3 3.8.9 5.4 1.1 1.5 2.8 2.4 4.9 2.4l32.2.1c1.6 0 3.2-.5 4.5-1.5 1.4-1 2.3-2.4 2.8-3.9l1.5-5.2c1.1-3.6 3.1-6.4 6.3-8.6 3.3-2.2 6.9-3.3 11.2-3.3h.1c3.8 0 6.6.9 8.2 2.8 1 1.1 2 2.9.9 6.6-.9 3-5.7 10.5-27.7 27.4l-17.5 13.5c-19.1 14.9-34.5 26.5-45.7 34.4-1.9 1.4-3.1 3.2-3.7 5.3l-7.1 23.9c-.6 1.9-.3 3.8.9 5.4 1.1 1.5 2.8 2.4 4.9 2.4l99.8.3v6.6 6.9l6-3.5 42.8-24.7 6-3.5-6-3.5-42.8-24.7-6-3.5v6.9 4.3l-32.5-.1c10.5-7.5 19-13.7 25.2-18.3 6.8-5 13.1-10.1 18.7-15 8.1-6.8 14.7-13.4 19.6-19.6 5.1-6.4 8.6-12.8 10.5-19.2 2.7-9 2.7-17.3 0-24.9-2.7-7.7-8.1-13.8-16.1-18.2-7.7-4.3-17.5-6.5-29.2-6.5z" fill="#fff"/></svg>